<mxfile host="app.diagrams.net" agent="Mozilla/5.0 (Windows NT 10.0; Win64; x64) AppleWebKit/537.36 (KHTML, like Gecko) Chrome/129.0.0.0 Safari/537.36" version="24.7.17">
  <diagram name="Page-1" id="bNYGBT0BBc-fJ686E5hY">
    <mxGraphModel dx="1518" dy="655" grid="1" gridSize="10" guides="1" tooltips="1" connect="1" arrows="1" fold="1" page="1" pageScale="1" pageWidth="850" pageHeight="1100" math="0" shadow="0">
      <root>
        <mxCell id="0" />
        <mxCell id="1" parent="0" />
        <mxCell id="Kl_0moLG12kebnQWCbXu-4" value="Admin" style="rounded=0;whiteSpace=wrap;html=1;" vertex="1" parent="1">
          <mxGeometry x="50" y="161" width="110" height="40" as="geometry" />
        </mxCell>
        <mxCell id="Kl_0moLG12kebnQWCbXu-5" value="1.0&lt;div&gt;Add business data&lt;/div&gt;" style="ellipse;whiteSpace=wrap;html=1;" vertex="1" parent="1">
          <mxGeometry x="250" y="40" width="90" height="70" as="geometry" />
        </mxCell>
        <mxCell id="Kl_0moLG12kebnQWCbXu-6" value="" style="group" vertex="1" connectable="0" parent="1">
          <mxGeometry x="410" y="161" width="120" height="40" as="geometry" />
        </mxCell>
        <mxCell id="Kl_0moLG12kebnQWCbXu-1" value="" style="endArrow=none;html=1;rounded=0;" edge="1" parent="Kl_0moLG12kebnQWCbXu-6">
          <mxGeometry width="50" height="50" relative="1" as="geometry">
            <mxPoint as="sourcePoint" />
            <mxPoint x="120" as="targetPoint" />
          </mxGeometry>
        </mxCell>
        <mxCell id="Kl_0moLG12kebnQWCbXu-2" value="" style="endArrow=none;html=1;rounded=0;" edge="1" parent="Kl_0moLG12kebnQWCbXu-6">
          <mxGeometry width="50" height="50" relative="1" as="geometry">
            <mxPoint y="40" as="sourcePoint" />
            <mxPoint x="120" y="40" as="targetPoint" />
          </mxGeometry>
        </mxCell>
        <mxCell id="Kl_0moLG12kebnQWCbXu-3" value="&lt;font style=&quot;font-size: 14px;&quot;&gt;business data&lt;/font&gt;" style="text;html=1;align=center;verticalAlign=middle;resizable=0;points=[];autosize=1;strokeColor=none;fillColor=none;" vertex="1" parent="Kl_0moLG12kebnQWCbXu-6">
          <mxGeometry x="5" y="6" width="110" height="30" as="geometry" />
        </mxCell>
        <mxCell id="Kl_0moLG12kebnQWCbXu-9" value="2.0&lt;div&gt;update business data&lt;/div&gt;" style="ellipse;whiteSpace=wrap;html=1;" vertex="1" parent="1">
          <mxGeometry x="250" y="146" width="90" height="70" as="geometry" />
        </mxCell>
        <mxCell id="Kl_0moLG12kebnQWCbXu-10" value="3.0&lt;div&gt;Delete business data&lt;/div&gt;" style="ellipse;whiteSpace=wrap;html=1;" vertex="1" parent="1">
          <mxGeometry x="250" y="270" width="90" height="70" as="geometry" />
        </mxCell>
        <mxCell id="Kl_0moLG12kebnQWCbXu-11" value="" style="endArrow=classic;html=1;rounded=0;entryX=0;entryY=0;entryDx=0;entryDy=0;" edge="1" parent="1" target="Kl_0moLG12kebnQWCbXu-5">
          <mxGeometry width="50" height="50" relative="1" as="geometry">
            <mxPoint x="80" y="160" as="sourcePoint" />
            <mxPoint x="310" y="150" as="targetPoint" />
            <Array as="points">
              <mxPoint x="80" y="50" />
            </Array>
          </mxGeometry>
        </mxCell>
        <mxCell id="Kl_0moLG12kebnQWCbXu-12" value="" style="endArrow=classic;html=1;rounded=0;exitX=-0.004;exitY=0.565;exitDx=0;exitDy=0;exitPerimeter=0;" edge="1" parent="1" source="Kl_0moLG12kebnQWCbXu-5">
          <mxGeometry width="50" height="50" relative="1" as="geometry">
            <mxPoint x="260" y="200" as="sourcePoint" />
            <mxPoint x="120" y="160" as="targetPoint" />
            <Array as="points">
              <mxPoint x="120" y="80" />
            </Array>
          </mxGeometry>
        </mxCell>
        <mxCell id="Kl_0moLG12kebnQWCbXu-13" value="" style="endArrow=classic;html=1;rounded=0;exitX=1;exitY=0.25;exitDx=0;exitDy=0;" edge="1" parent="1">
          <mxGeometry width="50" height="50" relative="1" as="geometry">
            <mxPoint x="160" y="167" as="sourcePoint" />
            <mxPoint x="250" y="167" as="targetPoint" />
          </mxGeometry>
        </mxCell>
        <mxCell id="Kl_0moLG12kebnQWCbXu-14" value="" style="endArrow=classic;html=1;rounded=0;exitX=0.049;exitY=0.703;exitDx=0;exitDy=0;exitPerimeter=0;" edge="1" parent="1" source="Kl_0moLG12kebnQWCbXu-9">
          <mxGeometry width="50" height="50" relative="1" as="geometry">
            <mxPoint x="240" y="194.98000000000002" as="sourcePoint" />
            <mxPoint x="160" y="195" as="targetPoint" />
          </mxGeometry>
        </mxCell>
        <mxCell id="Kl_0moLG12kebnQWCbXu-16" value="" style="endArrow=classic;html=1;rounded=0;entryX=0.623;entryY=1.05;entryDx=0;entryDy=0;entryPerimeter=0;exitX=0.024;exitY=0.38;exitDx=0;exitDy=0;exitPerimeter=0;" edge="1" parent="1" source="Kl_0moLG12kebnQWCbXu-10" target="Kl_0moLG12kebnQWCbXu-4">
          <mxGeometry width="50" height="50" relative="1" as="geometry">
            <mxPoint x="270" y="230" as="sourcePoint" />
            <mxPoint x="320" y="180" as="targetPoint" />
            <Array as="points">
              <mxPoint x="119" y="297" />
            </Array>
          </mxGeometry>
        </mxCell>
        <mxCell id="Kl_0moLG12kebnQWCbXu-17" value="" style="endArrow=classic;html=1;rounded=0;exitX=0.273;exitY=1.043;exitDx=0;exitDy=0;exitPerimeter=0;" edge="1" parent="1" source="Kl_0moLG12kebnQWCbXu-4">
          <mxGeometry width="50" height="50" relative="1" as="geometry">
            <mxPoint x="210" y="380" as="sourcePoint" />
            <mxPoint x="260" y="330" as="targetPoint" />
            <Array as="points">
              <mxPoint x="80" y="330" />
            </Array>
          </mxGeometry>
        </mxCell>
        <mxCell id="Kl_0moLG12kebnQWCbXu-18" value="Add business data" style="text;html=1;align=center;verticalAlign=middle;resizable=0;points=[];autosize=1;strokeColor=none;fillColor=none;" vertex="1" parent="1">
          <mxGeometry x="110" y="28" width="120" height="30" as="geometry" />
        </mxCell>
        <mxCell id="Kl_0moLG12kebnQWCbXu-19" value="business data&amp;nbsp;&lt;div&gt;added&lt;/div&gt;" style="text;html=1;align=center;verticalAlign=middle;resizable=0;points=[];autosize=1;strokeColor=none;fillColor=none;" vertex="1" parent="1">
          <mxGeometry x="130" y="58" width="100" height="40" as="geometry" />
        </mxCell>
        <mxCell id="Kl_0moLG12kebnQWCbXu-21" value="pass updated&amp;nbsp;&lt;div&gt;business data&lt;/div&gt;" style="text;html=1;align=center;verticalAlign=middle;resizable=0;points=[];autosize=1;strokeColor=none;fillColor=none;" vertex="1" parent="1">
          <mxGeometry x="160" y="133" width="100" height="40" as="geometry" />
        </mxCell>
        <mxCell id="Kl_0moLG12kebnQWCbXu-22" value="business data&lt;div&gt;updated&lt;/div&gt;" style="text;html=1;align=center;verticalAlign=middle;resizable=0;points=[];autosize=1;strokeColor=none;fillColor=none;" vertex="1" parent="1">
          <mxGeometry x="160" y="190" width="100" height="40" as="geometry" />
        </mxCell>
        <mxCell id="Kl_0moLG12kebnQWCbXu-23" value="request to delete&amp;nbsp;&lt;div&gt;business data&lt;/div&gt;" style="text;html=1;align=center;verticalAlign=middle;resizable=0;points=[];autosize=1;strokeColor=none;fillColor=none;" vertex="1" parent="1">
          <mxGeometry x="120" y="263" width="120" height="40" as="geometry" />
        </mxCell>
        <mxCell id="Kl_0moLG12kebnQWCbXu-24" value="business data&amp;nbsp;&lt;div&gt;deleted&lt;/div&gt;" style="text;html=1;align=center;verticalAlign=middle;resizable=0;points=[];autosize=1;strokeColor=none;fillColor=none;" vertex="1" parent="1">
          <mxGeometry x="80" y="310" width="100" height="40" as="geometry" />
        </mxCell>
        <mxCell id="Kl_0moLG12kebnQWCbXu-25" value="" style="endArrow=classic;html=1;rounded=0;exitX=1.005;exitY=0.447;exitDx=0;exitDy=0;exitPerimeter=0;" edge="1" parent="1" source="Kl_0moLG12kebnQWCbXu-5">
          <mxGeometry width="50" height="50" relative="1" as="geometry">
            <mxPoint x="510" y="240" as="sourcePoint" />
            <mxPoint x="460" y="160" as="targetPoint" />
          </mxGeometry>
        </mxCell>
        <mxCell id="Kl_0moLG12kebnQWCbXu-26" value="User" style="rounded=0;whiteSpace=wrap;html=1;" vertex="1" parent="1">
          <mxGeometry x="710" y="160" width="120" height="40" as="geometry" />
        </mxCell>
        <mxCell id="Kl_0moLG12kebnQWCbXu-27" value="4.0&lt;div&gt;&amp;nbsp;view business data&lt;/div&gt;" style="ellipse;whiteSpace=wrap;html=1;" vertex="1" parent="1">
          <mxGeometry x="570" y="43" width="90" height="70" as="geometry" />
        </mxCell>
        <mxCell id="Kl_0moLG12kebnQWCbXu-28" value="" style="endArrow=classic;html=1;rounded=0;entryX=1;entryY=0.386;entryDx=0;entryDy=0;entryPerimeter=0;exitX=0.575;exitY=-0.071;exitDx=0;exitDy=0;exitPerimeter=0;" edge="1" parent="1" source="Kl_0moLG12kebnQWCbXu-26" target="Kl_0moLG12kebnQWCbXu-27">
          <mxGeometry width="50" height="50" relative="1" as="geometry">
            <mxPoint x="520" y="210" as="sourcePoint" />
            <mxPoint x="570" y="160" as="targetPoint" />
            <Array as="points">
              <mxPoint x="780" y="70" />
            </Array>
          </mxGeometry>
        </mxCell>
        <mxCell id="Kl_0moLG12kebnQWCbXu-29" value="request to view&amp;nbsp;&lt;div&gt;business data&lt;/div&gt;" style="text;html=1;align=center;verticalAlign=middle;resizable=0;points=[];autosize=1;strokeColor=none;fillColor=none;" vertex="1" parent="1">
          <mxGeometry x="670" y="49" width="110" height="40" as="geometry" />
        </mxCell>
        <mxCell id="Kl_0moLG12kebnQWCbXu-33" value="" style="endArrow=classic;html=1;rounded=0;entryX=0;entryY=0.5;entryDx=0;entryDy=0;exitX=0.5;exitY=1;exitDx=0;exitDy=0;" edge="1" parent="1" source="Kl_0moLG12kebnQWCbXu-27" target="Kl_0moLG12kebnQWCbXu-26">
          <mxGeometry width="50" height="50" relative="1" as="geometry">
            <mxPoint x="520" y="210" as="sourcePoint" />
            <mxPoint x="570" y="160" as="targetPoint" />
            <Array as="points">
              <mxPoint x="615" y="180" />
            </Array>
          </mxGeometry>
        </mxCell>
        <mxCell id="Kl_0moLG12kebnQWCbXu-34" value="display&amp;nbsp;&lt;div&gt;business data&lt;/div&gt;" style="text;html=1;align=center;verticalAlign=middle;resizable=0;points=[];autosize=1;strokeColor=none;fillColor=none;" vertex="1" parent="1">
          <mxGeometry x="606" y="158" width="100" height="40" as="geometry" />
        </mxCell>
        <mxCell id="Kl_0moLG12kebnQWCbXu-35" value="" style="endArrow=classic;html=1;rounded=0;entryX=0;entryY=0.5;entryDx=0;entryDy=0;" edge="1" parent="1" target="Kl_0moLG12kebnQWCbXu-27">
          <mxGeometry width="50" height="50" relative="1" as="geometry">
            <mxPoint x="480" y="158" as="sourcePoint" />
            <mxPoint x="530" y="108" as="targetPoint" />
          </mxGeometry>
        </mxCell>
        <mxCell id="Kl_0moLG12kebnQWCbXu-37" value="" style="endArrow=classic;html=1;rounded=0;exitX=1;exitY=0.5;exitDx=0;exitDy=0;" edge="1" parent="1" source="Kl_0moLG12kebnQWCbXu-9">
          <mxGeometry width="50" height="50" relative="1" as="geometry">
            <mxPoint x="520" y="290" as="sourcePoint" />
            <mxPoint x="410" y="181" as="targetPoint" />
          </mxGeometry>
        </mxCell>
        <mxCell id="Kl_0moLG12kebnQWCbXu-38" value="" style="endArrow=classic;html=1;rounded=0;exitX=1;exitY=0.5;exitDx=0;exitDy=0;" edge="1" parent="1" source="Kl_0moLG12kebnQWCbXu-10">
          <mxGeometry width="50" height="50" relative="1" as="geometry">
            <mxPoint x="520" y="290" as="sourcePoint" />
            <mxPoint x="450" y="200" as="targetPoint" />
          </mxGeometry>
        </mxCell>
        <mxCell id="Kl_0moLG12kebnQWCbXu-40" value="" style="swimlane;startSize=0;" vertex="1" parent="1">
          <mxGeometry width="890" height="400" as="geometry" />
        </mxCell>
      </root>
    </mxGraphModel>
  </diagram>
</mxfile>
